<svg width="32" height="33" viewBox="0 0 32 33" fill="none" xmlns="http://www.w3.org/2000/svg">
<path fill-rule="evenodd" clip-rule="evenodd" d="M4.23906 0.452637C1.90162 0.452637 0 2.35639 0 4.6964C0 7.03745 1.90162 8.94193 4.23906 8.94193C6.57465 8.94193 8.47472 7.03735 8.47472 4.6964C8.47482 2.35639 6.57465 0.452637 4.23906 0.452637ZM7.44876 10.7348H1.02472C0.739613 10.7348 0.508594 10.9665 0.508594 11.2521V31.9353C0.508594 32.2211 0.739613 32.4526 1.02472 32.4526H7.44876C7.73387 32.4526 7.96489 32.2211 7.96489 31.9353V11.2521C7.96489 10.9665 7.73387 10.7348 7.44876 10.7348ZM18.1446 12.5954C19.3014 11.3323 21.2087 10.2207 23.7888 10.2207C31.0244 10.2207 32 15.4626 32 20.5902V31.9354C32 32.2211 31.769 32.4526 31.4839 32.4526H25.0715C24.7864 32.4526 24.5554 32.2211 24.5554 31.9354V21.8793C24.5554 19.0637 24.3478 16.91 21.7356 16.91C19.337 16.91 18.4024 18.2534 18.4024 21.7018V31.9353C18.4024 32.221 18.1714 32.4525 17.8863 32.4525H11.4763C11.1912 32.4525 10.9602 32.221 10.9602 31.9353V11.252C10.9602 10.9664 11.1912 10.7347 11.4763 10.7347H17.6284C17.9135 10.7347 18.1446 10.9664 18.1446 11.252V12.5954Z" fill="#0F161E"/>
</svg>
