<svg width="32" height="33" viewBox="0 0 32 33" fill="none" xmlns="http://www.w3.org/2000/svg">
<path d="M8.82529 6.02354C8.02154 6.19608 7.32645 6.58081 6.72481 7.1773C6.28114 7.6259 5.99008 8.05993 5.78796 8.5874C5.48725 9.36651 5.49711 9.00171 5.49711 16.452C5.49711 23.9022 5.48725 23.5374 5.78796 24.3165C6.28586 25.6132 7.54336 26.6438 8.92388 26.9001C9.32812 26.9741 22.6706 26.9741 23.0749 26.9001C23.849 26.7571 24.7561 26.274 25.3035 25.7118C25.8559 25.1398 26.2699 24.3708 26.4326 23.6015C26.4869 23.3452 26.5016 22.5069 26.5016 19.3463V16.8987H25.4662H24.4307V19.0998C24.4307 21.2348 24.411 22.9114 24.3814 23.079C24.2336 23.9813 23.5284 24.6863 22.6261 24.8341C22.2366 24.8982 9.76193 24.8982 9.37227 24.8341C8.48471 24.6912 7.78448 24.0057 7.61687 23.1133C7.55279 22.7632 7.54786 10.2294 7.61687 9.82518C7.76476 8.92284 8.46992 8.21768 9.37227 8.06979C9.53988 8.04021 11.2164 8.02049 13.3514 8.02049H15.3898V6.98504V5.9496L13.08 5.95452C10.0138 5.95452 9.05227 5.97425 8.82529 6.02354Z" fill="#0F161E"/>
<path d="M19.1563 6.98506V8.02051H21.0399H22.9284L20.2263 10.7226L17.5293 13.4196L18.2591 14.1494C18.6584 14.5487 19.0086 14.8743 19.0333 14.8743C19.0629 14.8743 20.2856 13.6712 21.7551 12.2017L24.4326 9.52449V11.413V13.2966H25.468H26.5031V9.6233V5.95004H22.8298H19.1563V6.98506Z" fill="#0F161E"/>
</svg>
